<svg fill="none" height="45" viewBox="0 0 157 45" width="157" xmlns="http://www.w3.org/2000/svg">
  <path
    d="M11.8045 16.1912V19.6199H0.685737V16.1912H11.8045ZM3.46542 35V14.4156C3.46542 13.1503 3.72665 12.0972 4.24912 11.2564C4.77975 10.4155 5.48998 9.78692 6.3798 9.37057C7.26963 8.95423 8.25742 8.74606 9.34317 8.74606C10.1105 8.74606 10.7922 8.80729 11.3881 8.92974C11.9841 9.0522 12.4249 9.1624 12.7106 9.26037L11.829 12.6891C11.6412 12.6319 11.4045 12.5748 11.1187 12.5176C10.833 12.4523 10.5146 12.4197 10.1636 12.4197C9.33909 12.4197 8.75539 12.6197 8.41253 13.0197C8.07782 13.4115 7.91047 13.9748 7.91047 14.7095V35H3.46542ZM15.276 35V16.1912H19.5741V19.326H19.77C20.1129 18.2403 20.7007 17.4035 21.5334 16.8157C22.3742 16.2198 23.3334 15.9218 24.411 15.9218C24.6559 15.9218 24.9294 15.9341 25.2315 15.9585C25.5417 15.9749 25.7988 16.0034 26.0029 16.0443V20.122C25.8151 20.0566 25.5172 19.9995 25.109 19.9505C24.709 19.8934 24.3212 19.8648 23.9457 19.8648C23.1375 19.8648 22.411 20.0403 21.766 20.3913C21.1293 20.7342 20.6272 21.2118 20.2599 21.8241C19.8925 22.4363 19.7088 23.1425 19.7088 23.9425V35H15.276ZM34.0236 35.3796C32.8317 35.3796 31.7582 35.1674 30.8031 34.7428C29.8561 34.3102 29.1051 33.6734 28.5499 32.8326C28.003 31.9917 27.7295 30.955 27.7295 29.7223C27.7295 28.661 27.9254 27.7834 28.3173 27.0895C28.7091 26.3956 29.2438 25.8405 29.9214 25.4242C30.599 25.0078 31.3623 24.6935 32.2113 24.4813C33.0684 24.2609 33.9542 24.1017 34.8685 24.0037C35.9706 23.8894 36.8645 23.7874 37.5502 23.6976C38.236 23.5996 38.7339 23.4527 39.0442 23.2568C39.3625 23.0527 39.5217 22.7384 39.5217 22.3139V22.2404C39.5217 21.3179 39.2482 20.6036 38.7013 20.0975C38.1543 19.5913 37.3666 19.3383 36.3379 19.3383C35.2522 19.3383 34.3909 19.575 33.7542 20.0485C33.1256 20.522 32.7011 21.0812 32.4807 21.7261L28.3418 21.1383C28.6683 19.9954 29.2071 19.0403 29.9581 18.2729C30.7092 17.4974 31.6276 16.9178 32.7133 16.5341C33.7991 16.1422 34.9991 15.9463 36.3135 15.9463C37.2196 15.9463 38.1217 16.0524 39.0197 16.2647C39.9177 16.4769 40.7381 16.828 41.481 17.3178C42.2239 17.7994 42.8198 18.4566 43.2688 19.2893C43.7259 20.122 43.9545 21.1628 43.9545 22.4118V35H39.6932V32.4162H39.5462C39.2768 32.9387 38.8972 33.4285 38.4074 33.8857C37.9258 34.3347 37.3176 34.6979 36.5829 34.9755C35.8563 35.2449 35.0032 35.3796 34.0236 35.3796ZM35.1746 32.1224C36.0645 32.1224 36.8359 31.9468 37.489 31.5958C38.1421 31.2366 38.6441 30.7631 38.9952 30.1753C39.3544 29.5876 39.534 28.9467 39.534 28.2528V26.0364C39.3952 26.1507 39.1584 26.2569 38.8237 26.3548C38.4972 26.4528 38.1298 26.5385 37.7217 26.612C37.3135 26.6854 36.9094 26.7507 36.5094 26.8079C36.1094 26.865 35.7624 26.914 35.4685 26.9548C34.8073 27.0446 34.2154 27.1916 33.693 27.3957C33.1705 27.5998 32.7582 27.8855 32.4562 28.2528C32.1541 28.612 32.0031 29.0774 32.0031 29.6488C32.0031 30.4652 32.3011 31.0815 32.897 31.4978C33.493 31.9142 34.2522 32.1224 35.1746 32.1224ZM47.2623 22.2205L53.8288 16.8831L60.8837 20.3684C60.0193 21.1317 59.5872 21.9904 59.5872 22.9445L59.5198 28.5176C59.5086 28.8993 59.8397 29.657 60.5132 30.7907C61.1867 31.9244 61.6919 32.6428 62.0286 32.9458L55.3779 40.5731C52.7512 39.9895 49.8496 39.5854 46.673 39.3609L51.017 33.8887C49.569 33.2938 48.3287 32.5305 47.296 31.5989C47.6664 31.105 47.9021 30.3361 48.0031 29.2922L47.9695 24.2073C47.9807 23.4665 47.745 22.8042 47.2623 22.2205ZM57.9371 35.2526C56.635 33.7709 55.9279 31.9637 55.8156 29.831L51.2022 35.724C52.9757 35.724 54.8784 36.0046 56.9101 36.5659L57.9371 35.2526ZM55.7146 27.9115L55.6641 22.3552L52.6839 20.924C52.0329 21.9006 51.7073 22.7705 51.7073 23.5338V27.6589C51.7073 28.4896 51.8308 29.0677 52.0778 29.3932C52.3359 29.7187 52.5604 29.9937 52.7512 30.2182C52.9421 30.4315 53.1834 30.6111 53.4753 30.757L55.7146 27.9115ZM64.744 35V16.1912H69.0421V19.326H69.238C69.5809 18.2403 70.1687 17.4035 71.0013 16.8157C71.8422 16.2198 72.8014 15.9218 73.879 15.9218C74.1239 15.9218 74.3974 15.9341 74.6994 15.9585C75.0096 15.9749 75.2668 16.0034 75.4709 16.0443V20.122C75.2831 20.0566 74.9852 19.9995 74.577 19.9505C74.177 19.8934 73.7892 19.8648 73.4137 19.8648C72.6055 19.8648 71.8789 20.0403 71.234 20.3913C70.5972 20.7342 70.0952 21.2118 69.7278 21.8241C69.3605 22.4363 69.1768 23.1425 69.1768 23.9425V35H64.744ZM83.4916 35.3796C82.2997 35.3796 81.2262 35.1674 80.271 34.7428C79.3241 34.3102 78.573 33.6734 78.0179 32.8326C77.4709 31.9917 77.1975 30.955 77.1975 29.7223C77.1975 28.661 77.3934 27.7834 77.7852 27.0895C78.1771 26.3956 78.7118 25.8405 79.3894 25.4242C80.0669 25.0078 80.8302 24.6935 81.6792 24.4813C82.5364 24.2609 83.4222 24.1017 84.3365 24.0037C85.4386 23.8894 86.3325 23.7874 87.0182 23.6976C87.7039 23.5996 88.2019 23.4527 88.5121 23.2568C88.8305 23.0527 88.9897 22.7384 88.9897 22.3139V22.2404C88.9897 21.3179 88.7162 20.6036 88.1693 20.0975C87.6223 19.5913 86.8345 19.3383 85.8059 19.3383C84.7202 19.3383 83.8589 19.575 83.2222 20.0485C82.5936 20.522 82.1691 21.0812 81.9486 21.7261L77.8097 21.1383C78.1363 19.9954 78.6751 19.0403 79.4261 18.2729C80.1772 17.4974 81.0956 16.9178 82.1813 16.5341C83.2671 16.1422 84.4671 15.9463 85.7814 15.9463C86.6876 15.9463 87.5896 16.0524 88.4876 16.2647C89.3856 16.4769 90.2061 16.828 90.9489 17.3178C91.6918 17.7994 92.2878 18.4566 92.7368 19.2893C93.1939 20.122 93.4225 21.1628 93.4225 22.4118V35H89.1611V32.4162H89.0142C88.7448 32.9387 88.3652 33.4285 87.8754 33.8857C87.3937 34.3347 86.7855 34.6979 86.0508 34.9755C85.3243 35.2449 84.4712 35.3796 83.4916 35.3796ZM84.6426 32.1224C85.5324 32.1224 86.3039 31.9468 86.957 31.5958C87.6101 31.2366 88.1121 30.7631 88.4631 30.1753C88.8223 29.5876 89.0019 28.9467 89.0019 28.2528V26.0364C88.8632 26.1507 88.6264 26.2569 88.2917 26.3548C87.9652 26.4528 87.5978 26.5385 87.1896 26.612C86.7815 26.6854 86.3774 26.7507 85.9773 26.8079C85.5773 26.865 85.2304 26.914 84.9365 26.9548C84.2753 27.0446 83.6834 27.1916 83.1609 27.3957C82.6385 27.5998 82.2262 27.8855 81.9242 28.2528C81.6221 28.612 81.4711 29.0774 81.4711 29.6488C81.4711 30.4652 81.769 31.0815 82.365 31.4978C82.9609 31.9142 83.7201 32.1224 84.6426 32.1224ZM102.313 23.9792V35H97.8798V16.1912H102.117V19.3872H102.337C102.77 18.3341 103.46 17.4974 104.407 16.8769C105.362 16.2565 106.541 15.9463 107.945 15.9463C109.243 15.9463 110.374 16.2239 111.337 16.779C112.309 17.3341 113.06 18.1382 113.591 19.1913C114.129 20.2444 114.395 21.522 114.386 23.0241V35H109.954V23.7098C109.954 22.4526 109.627 21.4689 108.974 20.7587C108.329 20.0485 107.435 19.6934 106.292 19.6934C105.517 19.6934 104.827 19.8648 104.223 20.2077C103.627 20.5424 103.158 21.0281 102.815 21.6649C102.48 22.3016 102.313 23.0731 102.313 23.9792ZM127.097 35.3674C125.219 35.3674 123.607 34.9551 122.26 34.1306C120.921 33.3061 119.889 32.1673 119.162 30.7141C118.444 29.2529 118.085 27.5712 118.085 25.6691C118.085 23.7588 118.452 22.073 119.187 20.6118C119.921 19.1423 120.958 17.9994 122.297 17.1831C123.644 16.3586 125.236 15.9463 127.073 15.9463C128.599 15.9463 129.95 16.2279 131.126 16.7912C132.31 17.3464 133.252 18.1341 133.954 19.1546C134.657 20.1669 135.057 21.3506 135.154 22.7057H130.918C130.746 21.7996 130.338 21.0444 129.693 20.4403C129.056 19.8281 128.203 19.5219 127.134 19.5219C126.228 19.5219 125.432 19.7668 124.746 20.2567C124.06 20.7383 123.526 21.4322 123.142 22.3384C122.766 23.2445 122.579 24.3303 122.579 25.5956C122.579 26.8773 122.766 27.9794 123.142 28.9018C123.517 29.8162 124.044 30.5223 124.721 31.0203C125.407 31.5101 126.211 31.755 127.134 31.755C127.787 31.755 128.371 31.6325 128.885 31.3876C129.407 31.1346 129.844 30.7713 130.195 30.2978C130.546 29.8243 130.787 29.2488 130.918 28.5712H135.154C135.048 29.9019 134.657 31.0815 133.979 32.1101C133.301 33.1306 132.379 33.9306 131.212 34.5102C130.044 35.0816 128.673 35.3674 127.097 35.3674ZM147.121 35.3674C145.235 35.3674 143.607 34.9755 142.235 34.1918C140.872 33.3999 139.823 32.2815 139.088 30.8366C138.354 29.3835 137.986 27.6732 137.986 25.7058C137.986 23.7711 138.354 22.073 139.088 20.6118C139.831 19.1423 140.868 17.9994 142.199 17.1831C143.529 16.3586 145.093 15.9463 146.889 15.9463C148.048 15.9463 149.142 16.1341 150.17 16.5096C151.207 16.8769 152.121 17.4484 152.913 18.2239C153.713 18.9995 154.342 19.9873 154.799 21.1873C155.256 22.3792 155.485 23.7996 155.485 25.4487V26.8079H140.068V23.82H151.236C151.227 22.971 151.044 22.2159 150.685 21.5547C150.325 20.8852 149.823 20.3587 149.178 19.975C148.542 19.5913 147.799 19.3995 146.95 19.3995C146.044 19.3995 145.248 19.6199 144.562 20.0607C143.876 20.4934 143.342 21.0648 142.958 21.7751C142.582 22.4771 142.39 23.2486 142.382 24.0894V26.6977C142.382 27.7916 142.582 28.7304 142.982 29.5141C143.382 30.2896 143.942 30.8856 144.66 31.3019C145.378 31.7101 146.219 31.9142 147.182 31.9142C147.827 31.9142 148.411 31.8244 148.934 31.6448C149.456 31.457 149.909 31.1835 150.293 30.8244C150.676 30.4652 150.966 30.0202 151.162 29.4896L155.301 29.9549C155.04 31.0488 154.542 32.004 153.807 32.8203C153.081 33.6285 152.15 34.2571 151.015 34.7061C149.88 35.1469 148.582 35.3674 147.121 35.3674Z"
    fill="#151515"/>
</svg>
